# xmcd CD database file
#
# Track frame offsets:
#	150
#	18129
#	39508
#	58620
#	80876
#	101222
#	118234
#	137889
#	158684
#	174609
#	191083
#	207635
#	224462
#	239820
#	259075
#	280176
#	297652
#
# Disc length: 4184 seconds
#
# Revision: 2
# Processed by: cddbd v1.5.2PL0 Copyright (c) Steve Scherf et al.
# Submitted via: CDex 1.51
#
DISCID=16105611
DTITLE=Various Artist - Made in America Disc 2
DYEAR=2000
DGENRE=Pop
TTITLE0=ZZTop - Gimme all your lovin
TTITLE1=Red Hot Chili Peppers - Give it away
TTITLE2=Hootie and The Blowfish - Hold my hand
TTITLE3=Lou Reed - NYC man
TTITLE4=The Cars - Heartbeat city
TTITLE5=Chris Isaak - Dancin'
TTITLE6=Madonna - Dear jessie
TTITLE7=K.D. Lang - Constant craving
TTITLE8=James Taylor - Let it all fall down
TTITLE9=Fleetwood Mac - Little lies
TTITLE10=Jackson Browne - Take it easy
TTITLE11=The Dooble Brothers - What a fool believes
TTITLE12=America - Ventura highway
TTITLE13=Christopher Cross - Sailing
TTITLE14=Paul Simon - You can call me A1
TTITLE15=Linda Ronstadt - Blue bayou
TTITLE16=Tom Waits - The piano has been drinking (not me)
EXTD=YEAR: 2000
EXTT0=
EXTT1=
EXTT2=
EXTT3=
EXTT4=
EXTT5=
EXTT6=
EXTT7=
EXTT8=
EXTT9=
EXTT10=
EXTT11=
EXTT12=
EXTT13=
EXTT14=
EXTT15=
EXTT16=
PLAYORDER=
